PathFileType	4	(X/Y/Z)	c:/Users/goper/Files/vsCode/490R/osim_files/A03/A03_Slow_05.trc
DataRate	CameraRate	NumFrames	NumMarkers	Units                	OrigDataRate	OrigDataStartFrame	OrigNumFrames
250.00	250.00	8	36	mm	250.0	1939	2584
                Frame#	Time	LPSIS			LASIS			LTH1			LTH2			LTH3			LTH4			LLFE			LMFE			LSH1			LSH2			LSH3			LSH4			LLMAL			LMMAL			LCAL			LMTP5			LTOE			LMTP1			RPSIS			RASIS			RTH1			RTH2			RTH3			RTH4			RLFE			RMFE			RSH1			RSH2			RSH3			RSH4			RLMAL			RMMAL			RCAL			RMTP1			RTOE			RMTP5		
		X1	Y1	Z1	X2	Y2	Z2	X3	Y3	Z3	X4	Y4	Z4	X5	Y5	Z5	X6	Y6	Z6	X7	Y7	Z7	X8	Y8	Z8	X9	Y9	Z9	X10	Y10	Z10	X11	Y11	Z11	X12	Y12	Z12	X13	Y13	Z13	X14	Y14	Z14	X15	Y15	Z15	X16	Y16	Z16	X17	Y17	Z17	X18	Y18	Z18	X19	Y19	Z19	X20	Y20	Z20	X21	Y21	Z21	X22	Y22	Z22	X23	Y23	Z23	X24	Y24	Z24	X25	Y25	Z25	X26	Y26	Z26	X27	Y27	Z27	X28	Y28	Z28	X29	Y29	Z29	X30	Y30	Z30	X31	Y31	Z31	X32	Y32	Z32	X33	Y33	Z33	X34	Y34	Z34	X35	Y35	Z35	X36	Y36	Z36

1939	7.75200	-3533.77466	1057.81201	255.46671	-3757.82373	964.10022	406.59494	-3604.60815	624.42999	411.13016	-3598.08813	581.42834	407.17953	-3662.77881	613.76392	397.07373	-3648.43481	571.96320	394.73218	0.00000	0.00000	0.00000	-3598.22217	539.96167	238.65146	-3514.56445	467.00934	387.21603	-3507.18457	419.38992	382.11115	0.00000	0.00000	0.00000	-3556.60352	407.14117	374.64594	-3434.84229	103.46532	326.39297	-3448.17334	112.89455	230.16656	-3365.74951	93.68411	273.26654	-3582.82202	49.08720	332.96240	0.00000	0.00000	0.00000	-3583.68433	54.73326	222.22287	-3543.90308	1057.17407	175.59872	-3805.64795	979.62610	109.97288	0.00000	0.00000	0.00000	-3829.94604	569.72064	82.56637	-3877.85376	628.45673	77.77419	-3884.84937	585.33972	87.01376	-3861.66162	547.58081	102.88324	-3888.13232	567.09113	220.86096	-3834.49219	470.01758	94.84121	-3849.38428	432.30801	82.85485	-3894.79590	488.51569	91.76265	-3904.39331	444.23370	82.98193	0.00000	0.00000	0.00000	0.00000	0.00000	0.00000	0.00000	0.00000	0.00000	0.00000	0.00000	0.00000	0.00000	0.00000	0.00000	-4178.78955	133.33163	98.96963
1940	7.75600	-3538.32593	1057.10925	254.98753	-3761.93701	963.17938	406.87967	-3607.35864	624.04370	411.28244	-3600.59961	581.00262	407.33560	-3665.46875	613.07074	397.40659	0.00000	0.00000	0.00000	-3575.08838	540.49939	391.23462	-3600.55859	539.49603	238.85136	-3516.56958	466.97330	387.33905	-3508.87378	419.61560	381.82834	-3577.81152	450.47546	382.88379	-3558.35864	406.91623	374.76199	-3435.07300	103.65254	326.51343	-3448.42725	113.17046	230.18604	-3365.98315	94.13829	273.32663	-3582.97485	49.20908	332.84521	0.00000	0.00000	0.00000	-3583.75684	54.67437	222.18663	-3548.77271	1056.34973	175.18605	-3810.63110	978.56622	110.22691	0.00000	0.00000	0.00000	0.00000	0.00000	0.00000	-3882.02173	627.64093	79.03023	-3889.09570	584.51971	88.17889	-3866.01318	546.69183	103.86765	-3892.23242	566.43427	221.97858	-3838.90430	468.88654	95.99635	-3853.69873	431.02692	84.16537	-3899.06543	487.29959	92.80986	-3908.85059	443.08807	84.07686	0.00000	0.00000	0.00000	0.00000	0.00000	0.00000	-4064.23560	55.45697	209.10101	-4239.14795	230.70187	162.84244	0.00000	0.00000	0.00000	-4183.69434	134.22125	99.13258
1941	7.76000	-3542.79517	1056.44788	254.59309	-3765.93823	962.24280	407.20215	-3610.06494	623.66040	411.39392	-3603.15137	580.57953	407.52872	-3668.18188	612.41125	397.76715	-3653.49512	570.72534	395.43341	-3577.61060	540.13263	391.39148	-3603.09399	539.05243	239.09007	-3518.70264	466.93042	387.49350	-3510.73413	419.32526	382.33710	-3579.85840	450.14807	383.00287	-3560.22217	406.72897	374.88617	-3435.36084	103.72528	327.15186	-3448.60059	113.33939	230.19460	-3366.23633	94.59493	273.44604	-3578.76245	45.50780	338.26053	0.00000	0.00000	0.00000	-3583.77295	54.59326	222.16093	-3553.59009	1055.45691	174.71942	-3815.69873	977.60229	110.50022	0.00000	0.00000	0.00000	-3838.89697	567.94263	84.36364	-3886.53394	626.93903	80.22077	-3893.67676	583.75977	89.27818	-3870.51416	545.77307	104.78242	-3896.47900	565.70135	223.06819	-3843.43115	467.63040	97.04155	-3858.33569	429.83676	85.25552	-3903.59253	486.11700	93.66752	-3913.47876	441.92465	85.15160	0.00000	0.00000	0.00000	0.00000	0.00000	0.00000	0.00000	0.00000	0.00000	-4243.07568	230.11296	162.62703	0.00000	0.00000	0.00000	-4187.90430	134.30460	99.09589
1942	7.76400	-3547.54102	1055.62915	254.17389	-3769.99951	961.34882	407.55624	-3612.73926	623.23969	411.48798	-3605.84326	580.17657	407.74503	-3671.00146	611.72400	398.14297	0.00000	0.00000	0.00000	-3580.08496	539.70520	391.44678	-3605.70728	538.58368	239.31261	-3520.89600	466.84341	387.59268	-3512.58057	419.50745	381.95157	-3581.93457	449.75830	383.13477	-3562.08667	406.47940	375.01410	-3435.61890	103.96527	327.28226	-3448.87109	113.61729	230.18004	-3366.45752	95.04703	273.53076	0.00000	0.00000	0.00000	0.00000	0.00000	0.00000	-3583.85791	54.54910	222.12807	-3558.59082	1054.60364	174.37138	-3820.76440	976.64282	110.80452	0.00000	0.00000	0.00000	-3847.70166	566.71069	81.99770	-3891.31323	626.29181	81.30772	-3898.51099	583.12201	90.30257	-3875.26953	544.92188	105.64053	-3900.86108	564.97382	224.08420	-3848.17651	466.52505	97.90963	-3863.08521	428.74533	86.22910	-3908.36279	484.97284	94.47645	-3918.29077	440.72751	86.17913	0.00000	0.00000	0.00000	0.00000	0.00000	0.00000	0.00000	0.00000	0.00000	0.00000	0.00000	0.00000	0.00000	0.00000	0.00000	-4191.19531	133.34744	99.11682
1943	7.76800	-3552.20825	1054.90442	253.75511	-3773.98926	960.44421	407.96188	-3615.36157	622.83154	411.52670	-3608.52710	579.68628	407.96478	-3673.88403	611.04987	398.57770	-3658.84473	569.46173	396.25412	-3582.79053	539.29779	391.65991	-3608.36963	538.09015	239.61400	-3523.18872	466.79205	387.74188	-3514.54321	419.47308	382.06607	-3584.10791	449.37393	383.26868	-3564.04199	406.18549	375.14499	-3435.85767	104.20018	327.40024	-3449.13232	113.88161	230.19090	-3366.73926	95.56552	273.65237	-3546.99048	16.77907	337.37643	0.00000	0.00000	0.00000	-3583.88062	54.44499	222.10596	-3563.14893	1053.79492	173.88483	-3825.85107	975.70258	111.08540	0.00000	0.00000	0.00000	-3852.80762	566.14935	82.94976	-3896.34863	625.67639	82.35834	-3903.58838	582.50055	91.32153	-3880.24341	544.16187	106.45847	-3905.44800	564.21039	225.03714	-3853.14868	465.62073	98.59660	-3867.95410	427.62073	87.14659	-3913.42114	483.83832	95.30483	-3923.18213	439.49020	87.17709	0.00000	0.00000	0.00000	0.00000	0.00000	0.00000	0.00000	0.00000	0.00000	-4251.37891	228.74800	162.09282	0.00000	0.00000	0.00000	-4194.16064	131.76060	99.26781
1944	7.77200	-3556.97705	1054.11536	253.44116	-3777.98047	959.55676	408.37317	-3618.09619	622.44104	411.55969	-3611.33008	579.24170	408.23172	-3676.87207	610.41266	399.06885	-3661.69482	568.84406	396.74927	0.00000	0.00000	0.00000	-3611.20361	537.52454	239.89471	-3525.59741	466.72607	387.90735	-3516.61938	419.38647	382.21661	-3586.40894	448.99304	383.43231	-3566.06812	405.89151	375.27716	-3436.16113	104.52517	327.54626	-3449.43384	114.22627	230.21516	-3367.03296	96.18675	273.74203	0.00000	0.00000	0.00000	0.00000	0.00000	0.00000	-3583.95020	54.35973	222.05289	-3568.95264	1052.55273	174.48178	-3831.01099	974.80090	111.38653	0.00000	0.00000	0.00000	-3857.97583	565.05542	84.45590	-3901.58984	625.09070	83.34282	-3908.86914	581.92212	92.29338	-3885.36499	543.40289	107.23600	-3910.23779	563.44647	225.89415	-3858.16260	464.73434	99.36494	-3872.99512	426.62454	87.95222	-3918.58350	482.72815	96.07888	-3928.16260	438.30887	88.14843	0.00000	0.00000	0.00000	0.00000	0.00000	0.00000	0.00000	0.00000	0.00000	0.00000	0.00000	0.00000	0.00000	0.00000	0.00000	-4196.54199	129.29010	99.53683
1945	7.77600	-3561.59644	1053.31897	253.12097	-3781.95508	958.68390	408.82065	-3620.85303	622.07843	411.69174	-3614.23291	578.76703	408.50867	-3679.91406	609.72534	399.58420	-3664.61011	568.23230	397.27264	-3588.54956	538.88568	393.42322	-3614.24902	536.85010	240.19214	-3528.14795	466.89108	387.85760	-3518.95190	419.06372	382.86200	-3588.79224	448.56592	383.60141	-3568.23071	405.62775	375.45483	-3436.45630	104.82109	327.71536	-3449.79199	114.63242	230.21815	-3367.36230	96.82823	273.86722	-3547.21094	16.60668	337.30817	0.00000	0.00000	0.00000	-3584.01636	54.25238	222.02942	-3573.03052	1052.10669	173.30212	-3836.17651	973.89178	111.74471	0.00000	0.00000	0.00000	-3863.41406	564.44226	85.29501	-3907.04688	624.49750	84.29752	-3914.34229	581.34552	93.27230	-3890.66455	542.70544	107.95947	-3915.21167	562.61230	226.64633	-3863.27930	463.97968	100.03956	-3878.07666	425.79382	88.76578	-3923.86816	481.63071	96.95871	-3933.14258	437.07922	89.10641	0.00000	0.00000	0.00000	0.00000	0.00000	0.00000	0.00000	0.00000	0.00000	0.00000	0.00000	0.00000	0.00000	0.00000	0.00000	-4198.67285	126.42469	99.97092
1946	7.78000	-3566.30762	1052.55005	252.84045	-3785.99683	957.83704	409.27789	-3623.71997	621.64301	411.79462	-3617.27173	578.30444	408.83286	-3683.04346	609.04773	400.12378	0.00000	0.00000	0.00000	-3593.45288	538.33337	395.06741	-3617.50684	536.14392	240.44023	-3530.17822	466.38068	386.75232	-3521.01782	419.19318	382.53027	-3591.26099	448.10739	383.78989	-3570.44287	405.29868	375.64163	-3436.82959	105.28077	327.85938	-3450.11035	115.00841	230.23480	-3367.72925	97.48568	274.00677	-3547.30176	16.51135	337.27426	0.00000	0.00000	0.00000	-3584.15723	54.19975	222.00829	-3578.81689	1050.94324	173.99146	-3841.41040	973.03162	112.09916	0.00000	0.00000	0.00000	-3869.03564	564.22614	85.34129	-3912.64868	623.91016	85.21142	-3919.96313	580.76544	94.21239	-3896.05737	541.99188	108.63953	-3920.38428	561.75647	227.29019	-3868.39331	463.45596	100.66365	-3883.02539	425.00729	89.47041	-3929.12378	480.54297	97.79671	-3938.08643	435.92142	90.00869	0.00000	0.00000	0.00000	0.00000	0.00000	0.00000	0.00000	0.00000	0.00000	0.00000	0.00000	0.00000	0.00000	0.00000	0.00000	-4200.39600	123.14069	100.64204
